<svg version="1.1" xmlns="http://www.w3.org/2000/svg" xmlns:xlink="http://www.w3.org/1999/xlink" width="500" height="auto" viewBox="0 0 400 400"><g data-paper-data="{&quot;description&quot;:&quot;Logo for Luneflix\n=================\n\nThis logo was generated by MarkMaker at http://emblemmatic.org/markmaker/ and may be composed of elements designed by others.\n\nThe font is Chivo-BlackItalic designed by Omnibus-Type and released under the OFL license via Google Fonts: https://www.google.com/fonts/specimen/Chivo. The font includes this copyright statement: Copyright (c) 2011 by Omnibus-Type (www.omnibus-type.com omnibus.type@gmail.com), with Reserved Font Name \\\&quot;Chivo\\\&quot;.\n\nMarkMaker uses semantic data from the Princeton University WordNet database http://wordnet.princeton.edu and font descriptions from Google Fonts https://www.google.com/fonts.&quot;}" fill="#db397a" fill-rule="nonzero" stroke="none" stroke-width="1" stroke-linecap="butt" stroke-linejoin="miter" stroke-miterlimit="10" stroke-dasharray="" stroke-dashoffset="0" font-family="none" font-weight="none" font-size="none" text-anchor="none" style="mix-blend-mode: normal"><g data-paper-data="{&quot;elementType&quot;:&quot;logo&quot;}"><g data-paper-data="{&quot;elementType&quot;:&quot;text&quot;}"><g data-paper-data="{&quot;baseline&quot;:68.60000000000001,&quot;elementType&quot;:&quot;row&quot;}"><g data-paper-data="{&quot;baselineProportion&quot;:0.985632183908046,&quot;fontSize&quot;:100,&quot;baseline&quot;:68.60000000000001,&quot;elementType&quot;:&quot;word&quot;}"><path d="M90.37775,278.37356h-40.37775l8.14271,-57.58657h17.79643l-6.12802,43.48374h20.56663z" data-paper-data="{&quot;elementType&quot;:&quot;letter&quot;,&quot;baseline&quot;:68.60000000000001,&quot;baselineProportion&quot;:1,&quot;fontSize&quot;:100}"></path><path d="M96.0021,263.09549c0,-1.00735 0.08395,-2.01469 0.25184,-3.02204l5.45645,-39.28646h17.71249l-5.45645,39.03463c-0.05596,0.16789 -0.08395,0.47569 -0.08395,0.9234c0,1.62295 0.57363,2.9241 1.72088,3.90346c1.14725,0.97936 2.58832,1.46905 4.32319,1.46905c4.42113,0 6.96747,-2.09864 7.63903,-6.29591l5.45645,-39.03463h17.62854l-5.45645,39.28646c-0.89542,5.98811 -3.49773,10.67506 -7.80693,14.06086c-4.3092,3.3858 -10.1574,5.0787 -17.5446,5.0787h-3.60965c-6.21196,0 -11.13676,-1.45505 -14.7744,-4.36516c-3.63764,-2.91011 -5.45645,-6.82756 -5.45645,-11.75236z" data-paper-data="{&quot;elementType&quot;:&quot;letter&quot;,&quot;baseline&quot;:68.60000000000001,&quot;baselineProportion&quot;:0.985632183908046,&quot;fontSize&quot;:100}"></path><path d="M167.94334,278.37356h-16.20147l8.14271,-57.58657h14.7744l11.75236,21.40609l2.35047,4.70094l3.6936,-26.10703h16.28541l-8.14271,57.58657h-15.11018l-11.41658,-20.65058c-0.6156,-1.2312 -1.09129,-2.12662 -1.42707,-2.68625l-1.09129,-2.18258z" data-paper-data="{&quot;elementType&quot;:&quot;letter&quot;,&quot;baseline&quot;:68.60000000000001,&quot;baselineProportion&quot;:1,&quot;fontSize&quot;:100}"></path><path d="M253.39979,278.37356h-43.2319l8.14271,-57.58657h43.2319l-3.52571,13.26338h-24.26023l-1.25918,8.39454h23.33683l-1.76285,12.84365h-23.33683l-1.34313,9.31794h24.00839z" data-paper-data="{&quot;elementType&quot;:&quot;letter&quot;,&quot;baseline&quot;:68.60000000000001,&quot;baselineProportion&quot;:1,&quot;fontSize&quot;:100}"></path><path d="M277.74397,278.37356h-17.20881l8.14271,-57.58657h41.63694l-3.60965,13.68311h-22.74921l-1.34313,9.40189h21.15425l-1.8468,12.9276h-21.15425z" data-paper-data="{&quot;elementType&quot;:&quot;letter&quot;,&quot;baseline&quot;:68.60000000000001,&quot;baselineProportion&quot;:1,&quot;fontSize&quot;:100}"></path><path d="M348.17419,278.37356h-40.37775l8.14271,-57.58657h17.79643l-6.12802,43.48374h20.56663z" data-paper-data="{&quot;elementType&quot;:&quot;letter&quot;,&quot;baseline&quot;:68.60000000000001,&quot;baselineProportion&quot;:1,&quot;fontSize&quot;:100}"></path><path d="M382.75971,278.37356h-31.39559l1.76285,-12.42392h6.79958l4.617,-32.82267h-6.79958l1.76285,-12.33998h31.39559l-1.76285,12.33998h-6.79958l-4.617,32.82267h6.79958z" data-paper-data="{&quot;elementType&quot;:&quot;letter&quot;,&quot;baseline&quot;:68.60000000000001,&quot;baselineProportion&quot;:1,&quot;fontSize&quot;:100}"></path><path d="M403.41028,278.37356h-18.88772l22.24554,-30.47219l-12.33998,-27.11438h20.39874l5.87618,14.69045h0.33578l10.07345,-14.69045h18.88772l-20.1469,27.19832l13.76705,30.38825h-20.48269l-7.21931,-17.88038h-0.33578z" data-paper-data="{&quot;elementType&quot;:&quot;letter&quot;,&quot;baseline&quot;:68.60000000000001,&quot;baselineProportion&quot;:1,&quot;fontSize&quot;:100}"></path></g></g></g></g></g></svg>